:FULLY-SPECIFIED
:FORCE-ALL-JOINTS-BE-3DOF
:DEGREES
227
root 8.7857 16.614 -5.30807 7.96361 -5.55677 -2.74682
lfemur -47.2919 6.43216 -20.9732
ltibia 38.5344 0 0
lfoot -12.667 9.81425 0
ltoes -5.98546 0 0
rfemur 6.71472 -1.79907 26.7152
rtibia 39.5586 0 0
rfoot 3.16865 2.71907 0
rtoes -13.4748 0 0
lowerback -5.09942 2.93798 0.832716
upperback -1.71991 3.77087 2.34746
thorax 0.787119 1.92296 2.26555
lowerneck -18.6955 -5.98113 -13.7342
upperneck 16.0393 -7.4377 14.5388
head 9.22681 -2.89143 6.3288
lclavicle -4.3046e-15 -4.97497e-15 0
lhumerus -49.7924 -3.21478 92.2735
lradius 21.9892 0 0
lwrist -1.11329 0 0
lhand -10.2045 -23.9678 0
lfingers 7.12502 0 0
lthumb 15.7858 5.39579 0
rclavicle -4.3046e-15 -4.97497e-15 0
rhumerus -40.1263 11.0258 -84.3977
rradius 46.7722 0 0
rwrist -24.8914 0 0
rhand -31.9352 -29.7899 0
rfingers 7.12502 0 0
rthumb -5.18609 -59.7021 0
228
root 8.81899 16.6152 -5.14277 7.99155 -5.76671 -2.6304
lfemur -47.0855 6.59643 -21.2123
ltibia 38.7727 0 0
lfoot -12.598 9.72639 0
ltoes -5.57055 0 0
rfemur 6.58254 -1.93124 26.3758
rtibia 40.4954 0 0
rfoot 3.77126 2.50179 0
rtoes -13.7591 0 0
lowerback -5.09959 2.92799 0.732425
upperback -1.75054 3.76473 2.30133
thorax 0.754542 1.92005 2.27285
lowerneck -18.7909 -5.94991 -13.704
upperneck 16.1247 -7.3906 14.4998
head 9.26312 -2.86754 6.31869
lclavicle -4.18548e-15 -4.8147e-15 0
lhumerus -49.5373 -3.16816 92.1127
lradius 21.8635 0 0
lwrist -1.40639 0 0
lhand -10.1128 -23.9331 0
lfingers 7.12502 0 0
lthumb 15.8742 5.4237 0
rclavicle -4.18548e-15 -4.8147e-15 0
rhumerus -40.3638 10.9895 -84.5225
rradius 46.4858 0 0
rwrist -24.7702 0 0
rhand -31.85 -29.7572 0
rfingers 7.12502 0 0
rthumb -5.10374 -59.6713 0
229
root 8.85252 16.6165 -4.97723 8.01865 -5.96576 -2.51187
lfemur -46.8499 6.75578 -21.4511
ltibia 38.9858 0 0
lfoot -12.5315 9.63532 0
ltoes -5.15939 0 0
rfemur 6.42527 -2.05019 26.0278
rtibia 41.4072 0 0
rfoot 4.34331 2.2763 0
rtoes -14.0424 0 0
lowerback -5.10135 2.91392 0.629797
upperback -1.78008 3.75339 2.25581
thorax 0.724643 1.91444 2.28154
lowerneck -18.8846 -5.91856 -13.6739
upperneck 16.2117 -7.3435 14.4602
head 9.29966 -2.84378 6.30844
lclavicle -4.09145e-15 -4.65641e-15 0
lhumerus -49.2664 -3.13988 91.9538
lradius 21.7484 0 0
lwrist -1.68395 0 0
lhand -10.0233 -23.8974 0
lfingers 7.12502 0 0
lthumb 15.9604 5.45285 0
rclavicle -4.09145e-15 -4.65641e-15 0
rhumerus -40.6021 10.9512 -84.6442
rradius 46.1981 0 0
rwrist -24.648 0 0
rhand -31.7643 -29.7237 0
rfingers 7.12502 0 0
rthumb -5.02099 -59.6396 0
230
root 8.88625 16.6176 -4.8115 8.04492 -6.15404 -2.39146
lfemur -46.5863 6.91018 -21.6894
ltibia 39.1742 0 0
lfoot -12.4672 9.54125 0
ltoes -4.75235 0 0
rfemur 6.24394 -2.15622 25.6718
rtibia 42.2937 0 0
rfoot 4.88513 2.04313 0
rtoes -14.3245 0 0
lowerback -5.10463 2.89591 0.525034
upperback -1.80854 3.73702 2.21093
thorax 0.697367 1.90623 2.29158
lowerneck -18.9766 -5.88713 -13.6439
upperneck 16.3001 -7.29647 14.4202
head 9.33638 -2.82018 6.29808
lclavicle -4.02179e-15 -4.50023e-15 0
lhumerus -48.9806 -3.12937 91.797
lradius 21.6435 0 0
lwrist -1.94615 0 0
lhand -9.9362 -23.8607 0
lfingers 7.12502 0 0
lthumb 16.0443 5.48317 0
rclavicle -4.02179e-15 -4.50023e-15 0
rhumerus -40.841 10.911 -84.7626
rradius 45.9095 0 0
rwrist -24.525 0 0
rhand -31.6783 -29.6895 0
rfingers 7.12502 0 0
rthumb -4.93797 -59.6073 0
231
root 8.92011 16.6187 -4.64567 8.07034 -6.33166 -2.26937
lfemur -46.2961 7.05961 -21.927
ltibia 39.3386 0 0
lfoot -12.4053 9.4444 0
ltoes -4.3498 0 0
rfemur 6.03958 -2.24962 25.3086
rtibia 43.1548 0 0
rfoot 5.39705 1.80284 0
rtoes -14.605 0 0
lowerback -5.10938 2.87412 0.418339
upperback -1.83591 3.71582 2.16674
thorax 0.672661 1.89552 2.30289
lowerneck -19.0668 -5.85566 -13.614
upperneck 16.3897 -7.24957 14.3798
head 9.37324 -2.79677 6.28763
lclavicle -3.97578e-15 -4.34627e-15 0
lhumerus -48.6808 -3.13605 91.6423
lradius 21.5488 0 0
lwrist -2.19318 0 0
lhand -9.8514 -23.823 0
lfingers 7.12502 0 0
lthumb 16.126 5.51459 0
rclavicle -3.97578e-15 -4.34627e-15 0
rhumerus -41.08 10.8689 -84.8778
rradius 45.6203 0 0
rwrist -24.4014 0 0
rhand -31.5921 -29.6545 0
rfingers 7.12502 0 0
rthumb -4.85478 -59.5742 0
232
root 8.95404 16.6198 -4.47978 8.09492 -6.49876 -2.14582
lfemur -45.9805 7.20404 -22.1634
ltibia 39.4795 0 0
lfoot -12.3458 9.34498 0
ltoes -3.95213 0 0
rfemur 5.8132 -2.3307 24.9389
rtibia 43.99 0 0
rfoot 5.87939 1.55598 0
rtoes -14.8836 0 0
lowerback -5.11554 2.84871 0.309913
upperback -1.8622 3.68998 2.12326
thorax 0.650474 1.88239 2.31543
lowerneck -19.1552 -5.82419 -13.5842
upperneck 16.4803 -7.20284 14.339
head 9.41017 -2.77356 6.27709
lclavicle -3.95269e-15 -4.19467e-15 0
lhumerus -48.3678 -3.15934 91.4899
lradius 21.464 0 0
lwrist -2.42522 0 0
lhand -9.76898 -23.7845 0
lfingers 7.12502 0 0
lthumb 16.2054 5.54702 0
rclavicle -3.95269e-15 -4.19467e-15 0
rhumerus -41.3189 10.8253 -84.9896
rradius 45.331 0 0
rwrist -24.2774 0 0
rhand -31.5059 -29.619 0
rfingers 7.12502 0 0
rthumb -4.77154 -59.5406 0
